<mxfile host="app.diagrams.net" modified="2020-07-29T17:18:42.298Z" agent="5.0 (Windows)" etag="x81Q6u67ACTZW-a57FHH" version="13.5.4" type="github">
  <diagram id="R2lEEEUBdFMjLlhIrx00" name="Page-1">
    <mxGraphModel dx="2354" dy="1744" grid="1" gridSize="10" guides="1" tooltips="1" connect="1" arrows="1" fold="1" page="1" pageScale="1" pageWidth="850" pageHeight="1100" math="0" shadow="0" extFonts="Permanent Marker^https://fonts.googleapis.com/css?family=Permanent+Marker">
      <root>
        <mxCell id="0" />
        <mxCell id="1" parent="0" />
        <mxCell id="Xwp6TRn4pz_zxC7EvDok-11" style="edgeStyle=orthogonalEdgeStyle;rounded=0;orthogonalLoop=1;jettySize=auto;html=1;exitX=1;exitY=0.5;exitDx=0;exitDy=0;" parent="1" source="Xwp6TRn4pz_zxC7EvDok-1" edge="1">
          <mxGeometry relative="1" as="geometry">
            <mxPoint x="290" y="100" as="targetPoint" />
          </mxGeometry>
        </mxCell>
        <mxCell id="Xwp6TRn4pz_zxC7EvDok-59" style="edgeStyle=orthogonalEdgeStyle;rounded=0;orthogonalLoop=1;jettySize=auto;html=1;" parent="1" source="Xwp6TRn4pz_zxC7EvDok-1" edge="1">
          <mxGeometry relative="1" as="geometry">
            <mxPoint x="320" y="190" as="targetPoint" />
            <Array as="points">
              <mxPoint x="210" y="160" />
              <mxPoint x="280" y="160" />
              <mxPoint x="280" y="190" />
            </Array>
          </mxGeometry>
        </mxCell>
        <mxCell id="Xwp6TRn4pz_zxC7EvDok-1" value="Bank" style="whiteSpace=wrap;html=1;align=center;" parent="1" vertex="1">
          <mxGeometry x="160" y="80" width="100" height="40" as="geometry" />
        </mxCell>
        <mxCell id="Xwp6TRn4pz_zxC7EvDok-120" style="edgeStyle=orthogonalEdgeStyle;rounded=0;orthogonalLoop=1;jettySize=auto;html=1;exitX=0;exitY=0.5;exitDx=0;exitDy=0;" parent="1" edge="1">
          <mxGeometry relative="1" as="geometry">
            <mxPoint x="10" y="140" as="targetPoint" />
            <Array as="points">
              <mxPoint x="30" y="160" />
            </Array>
            <mxPoint x="50" y="160" as="sourcePoint" />
          </mxGeometry>
        </mxCell>
        <mxCell id="Xwp6TRn4pz_zxC7EvDok-129" style="edgeStyle=orthogonalEdgeStyle;rounded=0;orthogonalLoop=1;jettySize=auto;html=1;exitX=0;exitY=0.75;exitDx=0;exitDy=0;" parent="1" edge="1">
          <mxGeometry relative="1" as="geometry">
            <mxPoint x="-50" y="180" as="targetPoint" />
            <mxPoint x="50" y="170" as="sourcePoint" />
          </mxGeometry>
        </mxCell>
        <mxCell id="Xwp6TRn4pz_zxC7EvDok-12" style="edgeStyle=orthogonalEdgeStyle;rounded=0;orthogonalLoop=1;jettySize=auto;html=1;exitX=1;exitY=0.5;exitDx=0;exitDy=0;" parent="1" source="Xwp6TRn4pz_zxC7EvDok-9" edge="1">
          <mxGeometry relative="1" as="geometry">
            <mxPoint x="390" y="100" as="targetPoint" />
          </mxGeometry>
        </mxCell>
        <mxCell id="Xwp6TRn4pz_zxC7EvDok-33" style="edgeStyle=orthogonalEdgeStyle;rounded=0;orthogonalLoop=1;jettySize=auto;html=1;exitX=0.5;exitY=0;exitDx=0;exitDy=0;" parent="1" source="Xwp6TRn4pz_zxC7EvDok-9" edge="1">
          <mxGeometry relative="1" as="geometry">
            <mxPoint x="315" y="50" as="targetPoint" />
          </mxGeometry>
        </mxCell>
        <mxCell id="Xwp6TRn4pz_zxC7EvDok-9" value="Organise" style="shape=rhombus;perimeter=rhombusPerimeter;whiteSpace=wrap;html=1;align=center;" parent="1" vertex="1">
          <mxGeometry x="270" y="80" width="90" height="40" as="geometry" />
        </mxCell>
        <mxCell id="Xwp6TRn4pz_zxC7EvDok-13" value="1" style="text;html=1;align=center;verticalAlign=middle;resizable=0;points=[];autosize=1;" parent="1" vertex="1">
          <mxGeometry x="260" y="80" width="20" height="20" as="geometry" />
        </mxCell>
        <mxCell id="Xwp6TRn4pz_zxC7EvDok-14" value="N" style="text;html=1;align=center;verticalAlign=middle;resizable=0;points=[];autosize=1;" parent="1" vertex="1">
          <mxGeometry x="360" y="80" width="20" height="20" as="geometry" />
        </mxCell>
        <mxCell id="Xwp6TRn4pz_zxC7EvDok-136" style="edgeStyle=orthogonalEdgeStyle;rounded=0;orthogonalLoop=1;jettySize=auto;html=1;" parent="1" source="Xwp6TRn4pz_zxC7EvDok-20" edge="1">
          <mxGeometry relative="1" as="geometry">
            <mxPoint x="-160" y="320" as="targetPoint" />
            <Array as="points">
              <mxPoint x="465" y="-40" />
              <mxPoint x="-160" y="-40" />
            </Array>
          </mxGeometry>
        </mxCell>
        <mxCell id="Xwp6TRn4pz_zxC7EvDok-20" value="Branch" style="shape=table;startSize=30;container=1;collapsible=1;childLayout=tableLayout;fixedRows=1;rowLines=0;fontStyle=1;align=center;resizeLast=1;" parent="1" vertex="1">
          <mxGeometry x="390" y="50" width="150" height="80" as="geometry" />
        </mxCell>
        <mxCell id="Xwp6TRn4pz_zxC7EvDok-21" value="" style="shape=partialRectangle;collapsible=0;dropTarget=0;pointerEvents=0;fillColor=none;top=0;left=0;bottom=1;right=0;points=[[0,0.5],[1,0.5]];portConstraint=eastwest;" parent="Xwp6TRn4pz_zxC7EvDok-20" vertex="1">
          <mxGeometry y="30" width="150" height="30" as="geometry" />
        </mxCell>
        <mxCell id="Xwp6TRn4pz_zxC7EvDok-22" value="PK" style="shape=partialRectangle;connectable=0;fillColor=none;top=0;left=0;bottom=0;right=0;fontStyle=1;overflow=hidden;" parent="Xwp6TRn4pz_zxC7EvDok-21" vertex="1">
          <mxGeometry width="30" height="30" as="geometry" />
        </mxCell>
        <mxCell id="Xwp6TRn4pz_zxC7EvDok-23" value="Name" style="shape=partialRectangle;connectable=0;fillColor=none;top=0;left=0;bottom=0;right=0;align=left;spacingLeft=6;fontStyle=5;overflow=hidden;" parent="Xwp6TRn4pz_zxC7EvDok-21" vertex="1">
          <mxGeometry x="30" width="120" height="30" as="geometry" />
        </mxCell>
        <mxCell id="Xwp6TRn4pz_zxC7EvDok-24" value="" style="shape=partialRectangle;collapsible=0;dropTarget=0;pointerEvents=0;fillColor=none;top=0;left=0;bottom=0;right=0;points=[[0,0.5],[1,0.5]];portConstraint=eastwest;" parent="Xwp6TRn4pz_zxC7EvDok-20" vertex="1">
          <mxGeometry y="60" width="150" height="20" as="geometry" />
        </mxCell>
        <mxCell id="Xwp6TRn4pz_zxC7EvDok-25" value="" style="shape=partialRectangle;connectable=0;fillColor=none;top=0;left=0;bottom=0;right=0;editable=1;overflow=hidden;" parent="Xwp6TRn4pz_zxC7EvDok-24" vertex="1">
          <mxGeometry width="30" height="20" as="geometry" />
        </mxCell>
        <mxCell id="Xwp6TRn4pz_zxC7EvDok-26" value="location" style="shape=partialRectangle;connectable=0;fillColor=none;top=0;left=0;bottom=0;right=0;align=left;spacingLeft=6;overflow=hidden;" parent="Xwp6TRn4pz_zxC7EvDok-24" vertex="1">
          <mxGeometry x="30" width="120" height="20" as="geometry" />
        </mxCell>
        <mxCell id="Xwp6TRn4pz_zxC7EvDok-34" value="Assets" style="ellipse;whiteSpace=wrap;html=1;align=center;" parent="1" vertex="1">
          <mxGeometry x="270" y="10" width="100" height="40" as="geometry" />
        </mxCell>
        <mxCell id="Xwp6TRn4pz_zxC7EvDok-51" style="edgeStyle=orthogonalEdgeStyle;rounded=0;orthogonalLoop=1;jettySize=auto;html=1;entryX=0.7;entryY=-0.05;entryDx=0;entryDy=0;entryPerimeter=0;" parent="1" source="Xwp6TRn4pz_zxC7EvDok-48" target="Xwp6TRn4pz_zxC7EvDok-52" edge="1">
          <mxGeometry relative="1" as="geometry">
            <mxPoint x="170" y="310" as="targetPoint" />
          </mxGeometry>
        </mxCell>
        <mxCell id="Xwp6TRn4pz_zxC7EvDok-53" style="edgeStyle=orthogonalEdgeStyle;rounded=0;orthogonalLoop=1;jettySize=auto;html=1;" parent="1" source="Xwp6TRn4pz_zxC7EvDok-48" edge="1">
          <mxGeometry relative="1" as="geometry">
            <mxPoint x="260" y="320" as="targetPoint" />
          </mxGeometry>
        </mxCell>
        <mxCell id="Xwp6TRn4pz_zxC7EvDok-79" style="edgeStyle=orthogonalEdgeStyle;rounded=0;orthogonalLoop=1;jettySize=auto;html=1;" parent="1" source="Xwp6TRn4pz_zxC7EvDok-48" edge="1">
          <mxGeometry relative="1" as="geometry">
            <mxPoint x="370" y="280" as="targetPoint" />
            <Array as="points">
              <mxPoint x="285" y="260" />
              <mxPoint x="285" y="280" />
            </Array>
          </mxGeometry>
        </mxCell>
        <mxCell id="Xwp6TRn4pz_zxC7EvDok-166" style="edgeStyle=orthogonalEdgeStyle;rounded=0;orthogonalLoop=1;jettySize=auto;html=1;" parent="1" source="Xwp6TRn4pz_zxC7EvDok-48" edge="1">
          <mxGeometry relative="1" as="geometry">
            <mxPoint x="210" y="210" as="targetPoint" />
          </mxGeometry>
        </mxCell>
        <mxCell id="Xwp6TRn4pz_zxC7EvDok-48" value="Customer" style="whiteSpace=wrap;html=1;align=center;" parent="1" vertex="1">
          <mxGeometry x="160" y="240" width="100" height="40" as="geometry" />
        </mxCell>
        <mxCell id="Xwp6TRn4pz_zxC7EvDok-52" value="customerId" style="ellipse;whiteSpace=wrap;html=1;align=center;fontStyle=4;" parent="1" vertex="1">
          <mxGeometry x="100" y="320" width="100" height="40" as="geometry" />
        </mxCell>
        <mxCell id="Xwp6TRn4pz_zxC7EvDok-55" style="edgeStyle=orthogonalEdgeStyle;rounded=0;orthogonalLoop=1;jettySize=auto;html=1;" parent="1" source="Xwp6TRn4pz_zxC7EvDok-54" edge="1">
          <mxGeometry relative="1" as="geometry">
            <mxPoint x="220" y="400" as="targetPoint" />
          </mxGeometry>
        </mxCell>
        <mxCell id="Xwp6TRn4pz_zxC7EvDok-57" style="edgeStyle=orthogonalEdgeStyle;rounded=0;orthogonalLoop=1;jettySize=auto;html=1;exitX=0.5;exitY=1;exitDx=0;exitDy=0;" parent="1" source="Xwp6TRn4pz_zxC7EvDok-54" edge="1">
          <mxGeometry relative="1" as="geometry">
            <mxPoint x="300" y="400" as="targetPoint" />
          </mxGeometry>
        </mxCell>
        <mxCell id="Xwp6TRn4pz_zxC7EvDok-54" value="Address" style="ellipse;whiteSpace=wrap;html=1;align=center;" parent="1" vertex="1">
          <mxGeometry x="210" y="320" width="100" height="40" as="geometry" />
        </mxCell>
        <mxCell id="Xwp6TRn4pz_zxC7EvDok-56" value="Street Name" style="ellipse;whiteSpace=wrap;html=1;align=center;" parent="1" vertex="1">
          <mxGeometry x="160" y="400" width="100" height="40" as="geometry" />
        </mxCell>
        <mxCell id="Xwp6TRn4pz_zxC7EvDok-58" value="City" style="ellipse;whiteSpace=wrap;html=1;align=center;" parent="1" vertex="1">
          <mxGeometry x="265" y="400" width="100" height="40" as="geometry" />
        </mxCell>
        <mxCell id="Xwp6TRn4pz_zxC7EvDok-61" style="edgeStyle=orthogonalEdgeStyle;rounded=0;orthogonalLoop=1;jettySize=auto;html=1;entryX=0;entryY=0;entryDx=0;entryDy=0;" parent="1" source="Xwp6TRn4pz_zxC7EvDok-60" target="Xwp6TRn4pz_zxC7EvDok-76" edge="1">
          <mxGeometry relative="1" as="geometry">
            <mxPoint x="480" y="240" as="targetPoint" />
            <Array as="points">
              <mxPoint x="355" y="240" />
              <mxPoint x="400" y="240" />
              <mxPoint x="400" y="250" />
            </Array>
          </mxGeometry>
        </mxCell>
        <mxCell id="Xwp6TRn4pz_zxC7EvDok-104" style="edgeStyle=orthogonalEdgeStyle;rounded=0;orthogonalLoop=1;jettySize=auto;html=1;exitX=1;exitY=0.5;exitDx=0;exitDy=0;" parent="1" source="Xwp6TRn4pz_zxC7EvDok-60" edge="1">
          <mxGeometry relative="1" as="geometry">
            <mxPoint x="470" y="160" as="targetPoint" />
          </mxGeometry>
        </mxCell>
        <mxCell id="Xwp6TRn4pz_zxC7EvDok-106" style="edgeStyle=orthogonalEdgeStyle;rounded=0;orthogonalLoop=1;jettySize=auto;html=1;exitX=1;exitY=0.5;exitDx=0;exitDy=0;" parent="1" source="Xwp6TRn4pz_zxC7EvDok-60" edge="1">
          <mxGeometry relative="1" as="geometry">
            <mxPoint x="470" y="220" as="targetPoint" />
          </mxGeometry>
        </mxCell>
        <mxCell id="Xwp6TRn4pz_zxC7EvDok-60" value="offers" style="shape=rhombus;perimeter=rhombusPerimeter;whiteSpace=wrap;html=1;align=center;" parent="1" vertex="1">
          <mxGeometry x="300" y="160" width="110" height="60" as="geometry" />
        </mxCell>
        <mxCell id="Xwp6TRn4pz_zxC7EvDok-93" style="edgeStyle=orthogonalEdgeStyle;rounded=0;orthogonalLoop=1;jettySize=auto;html=1;entryX=0.5;entryY=1;entryDx=0;entryDy=0;" parent="1" source="Xwp6TRn4pz_zxC7EvDok-76" edge="1">
          <mxGeometry relative="1" as="geometry">
            <mxPoint x="570" y="210" as="targetPoint" />
            <Array as="points">
              <mxPoint x="590" y="210" />
            </Array>
          </mxGeometry>
        </mxCell>
        <mxCell id="Xwp6TRn4pz_zxC7EvDok-96" style="edgeStyle=orthogonalEdgeStyle;rounded=0;orthogonalLoop=1;jettySize=auto;html=1;" parent="1" source="Xwp6TRn4pz_zxC7EvDok-76" edge="1">
          <mxGeometry relative="1" as="geometry">
            <mxPoint x="570" y="360" as="targetPoint" />
          </mxGeometry>
        </mxCell>
        <mxCell id="Xwp6TRn4pz_zxC7EvDok-98" style="edgeStyle=orthogonalEdgeStyle;rounded=0;orthogonalLoop=1;jettySize=auto;html=1;" parent="1" source="Xwp6TRn4pz_zxC7EvDok-76" edge="1">
          <mxGeometry relative="1" as="geometry">
            <mxPoint x="680" y="280" as="targetPoint" />
          </mxGeometry>
        </mxCell>
        <mxCell id="Xwp6TRn4pz_zxC7EvDok-76" value="Account" style="shape=ext;margin=3;double=1;whiteSpace=wrap;html=1;align=center;" parent="1" vertex="1">
          <mxGeometry x="510" y="250" width="120" height="60" as="geometry" />
        </mxCell>
        <mxCell id="Xwp6TRn4pz_zxC7EvDok-77" value="1" style="text;html=1;align=center;verticalAlign=middle;resizable=0;points=[];autosize=1;" parent="1" vertex="1">
          <mxGeometry x="240" y="140" width="20" height="20" as="geometry" />
        </mxCell>
        <mxCell id="Xwp6TRn4pz_zxC7EvDok-78" value="N" style="text;html=1;align=center;verticalAlign=middle;resizable=0;points=[];autosize=1;" parent="1" vertex="1">
          <mxGeometry x="425" y="230" width="20" height="20" as="geometry" />
        </mxCell>
        <mxCell id="Xwp6TRn4pz_zxC7EvDok-87" value="1" style="text;html=1;align=center;verticalAlign=middle;resizable=0;points=[];autosize=1;" parent="1" vertex="1">
          <mxGeometry x="310" y="260" width="20" height="20" as="geometry" />
        </mxCell>
        <mxCell id="Xwp6TRn4pz_zxC7EvDok-91" value="" style="shape=link;html=1;rounded=0;" parent="1" edge="1">
          <mxGeometry relative="1" as="geometry">
            <mxPoint x="440" y="280" as="sourcePoint" />
            <mxPoint x="510" y="280" as="targetPoint" />
          </mxGeometry>
        </mxCell>
        <mxCell id="Xwp6TRn4pz_zxC7EvDok-92" value="N" style="resizable=0;html=1;align=right;verticalAlign=bottom;" parent="Xwp6TRn4pz_zxC7EvDok-91" connectable="0" vertex="1">
          <mxGeometry x="1" relative="1" as="geometry">
            <mxPoint x="-25" as="offset" />
          </mxGeometry>
        </mxCell>
        <mxCell id="Xwp6TRn4pz_zxC7EvDok-100" value="Has" style="shape=rhombus;double=1;perimeter=rhombusPerimeter;whiteSpace=wrap;html=1;align=center;" parent="1" vertex="1">
          <mxGeometry x="350" y="250" width="120" height="60" as="geometry" />
        </mxCell>
        <mxCell id="Xwp6TRn4pz_zxC7EvDok-103" value="AccountId" style="ellipse;whiteSpace=wrap;html=1;align=center;fontStyle=4;" parent="1" vertex="1">
          <mxGeometry x="540" y="180" width="100" height="40" as="geometry" />
        </mxCell>
        <mxCell id="Xwp6TRn4pz_zxC7EvDok-105" value="balance" style="ellipse;whiteSpace=wrap;html=1;align=center;" parent="1" vertex="1">
          <mxGeometry x="470" y="140" width="80" height="40" as="geometry" />
        </mxCell>
        <mxCell id="Xwp6TRn4pz_zxC7EvDok-107" value="&lt;div&gt;Access&lt;/div&gt;&lt;div&gt;date&lt;br&gt;&lt;/div&gt;" style="ellipse;whiteSpace=wrap;html=1;align=center;" parent="1" vertex="1">
          <mxGeometry x="470" y="200" width="70" height="40" as="geometry" />
        </mxCell>
        <mxCell id="Xwp6TRn4pz_zxC7EvDok-112" style="edgeStyle=orthogonalEdgeStyle;rounded=0;orthogonalLoop=1;jettySize=auto;html=1;exitX=0.5;exitY=0;exitDx=0;exitDy=0;" parent="1" source="Xwp6TRn4pz_zxC7EvDok-20" edge="1">
          <mxGeometry relative="1" as="geometry">
            <mxPoint x="100" y="90" as="targetPoint" />
            <mxPoint x="465" as="sourcePoint" />
            <Array as="points">
              <mxPoint x="465" />
              <mxPoint x="100" />
            </Array>
          </mxGeometry>
        </mxCell>
        <mxCell id="Xwp6TRn4pz_zxC7EvDok-117" style="edgeStyle=orthogonalEdgeStyle;rounded=0;orthogonalLoop=1;jettySize=auto;html=1;exitX=0.5;exitY=1;exitDx=0;exitDy=0;entryX=0.5;entryY=0;entryDx=0;entryDy=0;" parent="1" source="Xwp6TRn4pz_zxC7EvDok-114" edge="1">
          <mxGeometry relative="1" as="geometry">
            <mxPoint x="99.99999999999955" y="140" as="targetPoint" />
          </mxGeometry>
        </mxCell>
        <mxCell id="Xwp6TRn4pz_zxC7EvDok-114" value="offers" style="shape=rhombus;perimeter=rhombusPerimeter;whiteSpace=wrap;html=1;align=center;" parent="1" vertex="1">
          <mxGeometry x="45" y="50" width="110" height="60" as="geometry" />
        </mxCell>
        <mxCell id="Xwp6TRn4pz_zxC7EvDok-118" value="M" style="text;html=1;align=center;verticalAlign=middle;resizable=0;points=[];autosize=1;" parent="1" vertex="1">
          <mxGeometry x="190" y="-20" width="20" height="20" as="geometry" />
        </mxCell>
        <mxCell id="Xwp6TRn4pz_zxC7EvDok-119" value="N" style="text;html=1;align=center;verticalAlign=middle;resizable=0;points=[];autosize=1;" parent="1" vertex="1">
          <mxGeometry x="110" y="110" width="20" height="20" as="geometry" />
        </mxCell>
        <mxCell id="Xwp6TRn4pz_zxC7EvDok-121" value="LoanNumber" style="ellipse;whiteSpace=wrap;html=1;align=center;fontStyle=4;" parent="1" vertex="1">
          <mxGeometry x="-90" y="120" width="100" height="40" as="geometry" />
        </mxCell>
        <mxCell id="Xwp6TRn4pz_zxC7EvDok-122" value="" style="shape=link;html=1;rounded=0;width=4;" parent="1" edge="1">
          <mxGeometry relative="1" as="geometry">
            <mxPoint x="100" y="210" as="sourcePoint" />
            <mxPoint x="100" y="180" as="targetPoint" />
          </mxGeometry>
        </mxCell>
        <mxCell id="Xwp6TRn4pz_zxC7EvDok-126" style="edgeStyle=orthogonalEdgeStyle;rounded=0;orthogonalLoop=1;jettySize=auto;html=1;exitX=0.5;exitY=1;exitDx=0;exitDy=0;" parent="1" source="Xwp6TRn4pz_zxC7EvDok-124" edge="1">
          <mxGeometry relative="1" as="geometry">
            <mxPoint x="160" y="260" as="targetPoint" />
            <Array as="points">
              <mxPoint x="100" y="260" />
              <mxPoint x="160" y="260" />
            </Array>
          </mxGeometry>
        </mxCell>
        <mxCell id="Xwp6TRn4pz_zxC7EvDok-132" style="edgeStyle=orthogonalEdgeStyle;rounded=0;orthogonalLoop=1;jettySize=auto;html=1;exitX=0;exitY=0.5;exitDx=0;exitDy=0;" parent="1" source="Xwp6TRn4pz_zxC7EvDok-124" edge="1">
          <mxGeometry relative="1" as="geometry">
            <mxPoint y="225" as="targetPoint" />
          </mxGeometry>
        </mxCell>
        <mxCell id="Xwp6TRn4pz_zxC7EvDok-133" style="edgeStyle=orthogonalEdgeStyle;rounded=0;orthogonalLoop=1;jettySize=auto;html=1;" parent="1" source="Xwp6TRn4pz_zxC7EvDok-124" edge="1">
          <mxGeometry relative="1" as="geometry">
            <mxPoint x="-10" y="280" as="targetPoint" />
            <Array as="points">
              <mxPoint x="20" y="225" />
            </Array>
          </mxGeometry>
        </mxCell>
        <mxCell id="Xwp6TRn4pz_zxC7EvDok-124" value="Applies For" style="shape=rhombus;double=1;perimeter=rhombusPerimeter;whiteSpace=wrap;html=1;align=center;" parent="1" vertex="1">
          <mxGeometry x="45" y="200" width="110" height="50" as="geometry" />
        </mxCell>
        <mxCell id="Xwp6TRn4pz_zxC7EvDok-127" value="M" style="text;html=1;align=center;verticalAlign=middle;resizable=0;points=[];autosize=1;" parent="1" vertex="1">
          <mxGeometry x="130" y="240" width="20" height="20" as="geometry" />
        </mxCell>
        <mxCell id="Xwp6TRn4pz_zxC7EvDok-128" value="N" style="text;html=1;align=center;verticalAlign=middle;resizable=0;points=[];autosize=1;" parent="1" vertex="1">
          <mxGeometry x="120" y="180" width="20" height="20" as="geometry" />
        </mxCell>
        <mxCell id="Xwp6TRn4pz_zxC7EvDok-130" value="Payment Number" style="ellipse;whiteSpace=wrap;html=1;align=center;" parent="1" vertex="1">
          <mxGeometry x="-150" y="160" width="100" height="40" as="geometry" />
        </mxCell>
        <mxCell id="Xwp6TRn4pz_zxC7EvDok-134" value="Date" style="ellipse;whiteSpace=wrap;html=1;align=center;" parent="1" vertex="1">
          <mxGeometry x="-100" y="205" width="100" height="40" as="geometry" />
        </mxCell>
        <mxCell id="Xwp6TRn4pz_zxC7EvDok-135" value="Amount" style="ellipse;whiteSpace=wrap;html=1;align=center;" parent="1" vertex="1">
          <mxGeometry x="-110" y="260" width="100" height="40" as="geometry" />
        </mxCell>
        <mxCell id="Xwp6TRn4pz_zxC7EvDok-139" style="edgeStyle=orthogonalEdgeStyle;rounded=0;orthogonalLoop=1;jettySize=auto;html=1;entryX=0;entryY=0.667;entryDx=0;entryDy=0;entryPerimeter=0;" parent="1" source="Xwp6TRn4pz_zxC7EvDok-138" target="Xwp6TRn4pz_zxC7EvDok-149" edge="1">
          <mxGeometry relative="1" as="geometry">
            <mxPoint x="-120" y="390" as="targetPoint" />
          </mxGeometry>
        </mxCell>
        <mxCell id="Xwp6TRn4pz_zxC7EvDok-140" style="edgeStyle=orthogonalEdgeStyle;rounded=0;orthogonalLoop=1;jettySize=auto;html=1;" parent="1" source="Xwp6TRn4pz_zxC7EvDok-138" edge="1">
          <mxGeometry relative="1" as="geometry">
            <mxPoint x="-250" y="340" as="targetPoint" />
          </mxGeometry>
        </mxCell>
        <mxCell id="Xwp6TRn4pz_zxC7EvDok-138" value="Appoints" style="shape=rhombus;perimeter=rhombusPerimeter;whiteSpace=wrap;html=1;align=center;" parent="1" vertex="1">
          <mxGeometry x="-220" y="310" width="120" height="60" as="geometry" />
        </mxCell>
        <mxCell id="Xwp6TRn4pz_zxC7EvDok-141" value="Start Date" style="ellipse;whiteSpace=wrap;html=1;align=center;" parent="1" vertex="1">
          <mxGeometry x="-350" y="320" width="100" height="40" as="geometry" />
        </mxCell>
        <mxCell id="Xwp6TRn4pz_zxC7EvDok-145" style="edgeStyle=orthogonalEdgeStyle;rounded=0;orthogonalLoop=1;jettySize=auto;html=1;entryX=0;entryY=0.75;entryDx=0;entryDy=0;" parent="1" source="Xwp6TRn4pz_zxC7EvDok-144" target="Xwp6TRn4pz_zxC7EvDok-48" edge="1">
          <mxGeometry relative="1" as="geometry">
            <mxPoint x="70" y="280" as="targetPoint" />
            <Array as="points">
              <mxPoint x="75" y="270" />
            </Array>
          </mxGeometry>
        </mxCell>
        <mxCell id="Xwp6TRn4pz_zxC7EvDok-144" value="Associated" style="shape=rhombus;perimeter=rhombusPerimeter;whiteSpace=wrap;html=1;align=center;" parent="1" vertex="1">
          <mxGeometry x="30" y="370" width="90" height="60" as="geometry" />
        </mxCell>
        <mxCell id="Xwp6TRn4pz_zxC7EvDok-146" value="1" style="text;html=1;align=center;verticalAlign=middle;resizable=0;points=[];autosize=1;" parent="1" vertex="1">
          <mxGeometry y="360" width="20" height="20" as="geometry" />
        </mxCell>
        <mxCell id="Xwp6TRn4pz_zxC7EvDok-147" value="N" style="text;html=1;align=center;verticalAlign=middle;resizable=0;points=[];autosize=1;" parent="1" vertex="1">
          <mxGeometry x="50" y="290" width="20" height="20" as="geometry" />
        </mxCell>
        <mxCell id="Xwp6TRn4pz_zxC7EvDok-163" style="edgeStyle=orthogonalEdgeStyle;rounded=0;orthogonalLoop=1;jettySize=auto;html=1;exitX=0.5;exitY=0;exitDx=0;exitDy=0;entryX=0;entryY=0;entryDx=0;entryDy=0;" parent="1" source="Xwp6TRn4pz_zxC7EvDok-148" target="Xwp6TRn4pz_zxC7EvDok-144" edge="1">
          <mxGeometry relative="1" as="geometry">
            <Array as="points">
              <mxPoint x="-40" y="320" />
              <mxPoint x="52" y="320" />
            </Array>
          </mxGeometry>
        </mxCell>
        <mxCell id="TdM7WFlx7A7SoxOeXF58-2" style="edgeStyle=orthogonalEdgeStyle;rounded=0;orthogonalLoop=1;jettySize=auto;html=1;" edge="1" parent="1" source="Xwp6TRn4pz_zxC7EvDok-148">
          <mxGeometry relative="1" as="geometry">
            <mxPoint x="140" y="-80" as="targetPoint" />
            <Array as="points">
              <mxPoint x="-40" y="540" />
              <mxPoint x="-360" y="540" />
              <mxPoint x="-360" y="-80" />
            </Array>
          </mxGeometry>
        </mxCell>
        <mxCell id="Xwp6TRn4pz_zxC7EvDok-148" value="Employee" style="shape=table;startSize=30;container=1;collapsible=1;childLayout=tableLayout;fixedRows=1;rowLines=0;fontStyle=1;align=center;resizeLast=1;" parent="1" vertex="1">
          <mxGeometry x="-110" y="340" width="140" height="190" as="geometry" />
        </mxCell>
        <mxCell id="Xwp6TRn4pz_zxC7EvDok-149" value="" style="shape=partialRectangle;collapsible=0;dropTarget=0;pointerEvents=0;fillColor=none;top=0;left=0;bottom=1;right=0;points=[[0,0.5],[1,0.5]];portConstraint=eastwest;" parent="Xwp6TRn4pz_zxC7EvDok-148" vertex="1">
          <mxGeometry y="30" width="140" height="30" as="geometry" />
        </mxCell>
        <mxCell id="Xwp6TRn4pz_zxC7EvDok-150" value="PK" style="shape=partialRectangle;connectable=0;fillColor=none;top=0;left=0;bottom=0;right=0;fontStyle=1;overflow=hidden;" parent="Xwp6TRn4pz_zxC7EvDok-149" vertex="1">
          <mxGeometry width="30" height="30" as="geometry" />
        </mxCell>
        <mxCell id="Xwp6TRn4pz_zxC7EvDok-151" value="Id" style="shape=partialRectangle;connectable=0;fillColor=none;top=0;left=0;bottom=0;right=0;align=left;spacingLeft=6;fontStyle=5;overflow=hidden;" parent="Xwp6TRn4pz_zxC7EvDok-149" vertex="1">
          <mxGeometry x="30" width="110" height="30" as="geometry" />
        </mxCell>
        <mxCell id="Xwp6TRn4pz_zxC7EvDok-152" value="" style="shape=partialRectangle;collapsible=0;dropTarget=0;pointerEvents=0;fillColor=none;top=0;left=0;bottom=0;right=0;points=[[0,0.5],[1,0.5]];portConstraint=eastwest;" parent="Xwp6TRn4pz_zxC7EvDok-148" vertex="1">
          <mxGeometry y="60" width="140" height="30" as="geometry" />
        </mxCell>
        <mxCell id="Xwp6TRn4pz_zxC7EvDok-153" value="" style="shape=partialRectangle;connectable=0;fillColor=none;top=0;left=0;bottom=0;right=0;editable=1;overflow=hidden;" parent="Xwp6TRn4pz_zxC7EvDok-152" vertex="1">
          <mxGeometry width="30" height="30" as="geometry" />
        </mxCell>
        <mxCell id="Xwp6TRn4pz_zxC7EvDok-154" value="Name" style="shape=partialRectangle;connectable=0;fillColor=none;top=0;left=0;bottom=0;right=0;align=left;spacingLeft=6;overflow=hidden;" parent="Xwp6TRn4pz_zxC7EvDok-152" vertex="1">
          <mxGeometry x="30" width="110" height="30" as="geometry" />
        </mxCell>
        <mxCell id="Xwp6TRn4pz_zxC7EvDok-155" value="" style="shape=partialRectangle;collapsible=0;dropTarget=0;pointerEvents=0;fillColor=none;top=0;left=0;bottom=0;right=0;points=[[0,0.5],[1,0.5]];portConstraint=eastwest;" parent="Xwp6TRn4pz_zxC7EvDok-148" vertex="1">
          <mxGeometry y="90" width="140" height="30" as="geometry" />
        </mxCell>
        <mxCell id="Xwp6TRn4pz_zxC7EvDok-156" value="" style="shape=partialRectangle;connectable=0;fillColor=none;top=0;left=0;bottom=0;right=0;editable=1;overflow=hidden;" parent="Xwp6TRn4pz_zxC7EvDok-155" vertex="1">
          <mxGeometry width="30" height="30" as="geometry" />
        </mxCell>
        <mxCell id="Xwp6TRn4pz_zxC7EvDok-157" value="&#xa;Mobile No.&#xa;&#xa;(Multivalued attr)" style="shape=partialRectangle;connectable=0;fillColor=none;top=0;left=0;bottom=0;right=0;align=left;spacingLeft=6;overflow=hidden;" parent="Xwp6TRn4pz_zxC7EvDok-155" vertex="1">
          <mxGeometry x="30" width="110" height="30" as="geometry" />
        </mxCell>
        <mxCell id="Xwp6TRn4pz_zxC7EvDok-158" value="" style="shape=partialRectangle;collapsible=0;dropTarget=0;pointerEvents=0;fillColor=none;top=0;left=0;bottom=0;right=0;points=[[0,0.5],[1,0.5]];portConstraint=eastwest;" parent="Xwp6TRn4pz_zxC7EvDok-148" vertex="1">
          <mxGeometry y="120" width="140" height="30" as="geometry" />
        </mxCell>
        <mxCell id="Xwp6TRn4pz_zxC7EvDok-159" value="" style="shape=partialRectangle;connectable=0;fillColor=none;top=0;left=0;bottom=0;right=0;editable=1;overflow=hidden;" parent="Xwp6TRn4pz_zxC7EvDok-158" vertex="1">
          <mxGeometry width="30" height="30" as="geometry" />
        </mxCell>
        <mxCell id="Xwp6TRn4pz_zxC7EvDok-160" value="&#xa;Dependent Names&#xa;" style="shape=partialRectangle;connectable=0;fillColor=none;top=0;left=0;bottom=0;right=0;align=left;spacingLeft=6;overflow=hidden;" parent="Xwp6TRn4pz_zxC7EvDok-158" vertex="1">
          <mxGeometry x="30" width="110" height="30" as="geometry" />
        </mxCell>
        <mxCell id="Xwp6TRn4pz_zxC7EvDok-164" value="1" style="text;html=1;align=center;verticalAlign=middle;resizable=0;points=[];autosize=1;" parent="1" vertex="1">
          <mxGeometry y="300" width="20" height="20" as="geometry" />
        </mxCell>
        <mxCell id="Xwp6TRn4pz_zxC7EvDok-165" value="&lt;div&gt;&lt;br&gt;&lt;/div&gt;&lt;div&gt;Manager_Id&lt;/div&gt;" style="text;html=1;align=center;verticalAlign=middle;resizable=0;points=[];autosize=1;" parent="1" vertex="1">
          <mxGeometry x="-80" y="485" width="80" height="30" as="geometry" />
        </mxCell>
        <mxCell id="Xwp6TRn4pz_zxC7EvDok-167" value="Name" style="ellipse;whiteSpace=wrap;html=1;align=center;" parent="1" vertex="1">
          <mxGeometry x="160" y="170" width="100" height="40" as="geometry" />
        </mxCell>
        <mxCell id="Xwp6TRn4pz_zxC7EvDok-169" value="1" style="text;html=1;align=center;verticalAlign=middle;resizable=0;points=[];autosize=1;" parent="1" vertex="1">
          <mxGeometry y="-60" width="20" height="20" as="geometry" />
        </mxCell>
        <mxCell id="Xwp6TRn4pz_zxC7EvDok-170" value="N" style="text;html=1;align=center;verticalAlign=middle;resizable=0;points=[];autosize=1;" parent="1" vertex="1">
          <mxGeometry x="-140" y="370" width="20" height="20" as="geometry" />
        </mxCell>
        <mxCell id="TdM7WFlx7A7SoxOeXF58-1" value="Loan" style="shape=ext;margin=3;double=1;whiteSpace=wrap;html=1;align=center;" vertex="1" parent="1">
          <mxGeometry x="50" y="140" width="100" height="40" as="geometry" />
        </mxCell>
        <mxCell id="TdM7WFlx7A7SoxOeXF58-3" value="Manages" style="shape=rhombus;perimeter=rhombusPerimeter;whiteSpace=wrap;html=1;align=center;" vertex="1" parent="1">
          <mxGeometry x="140" y="-110" width="120" height="60" as="geometry" />
        </mxCell>
        <mxCell id="TdM7WFlx7A7SoxOeXF58-13" style="edgeStyle=orthogonalEdgeStyle;rounded=0;orthogonalLoop=1;jettySize=auto;html=1;" edge="1" parent="1">
          <mxGeometry relative="1" as="geometry">
            <mxPoint x="570" y="540" as="targetPoint" />
            <mxPoint x="570" y="500" as="sourcePoint" />
          </mxGeometry>
        </mxCell>
        <mxCell id="TdM7WFlx7A7SoxOeXF58-12" style="edgeStyle=orthogonalEdgeStyle;rounded=0;orthogonalLoop=1;jettySize=auto;html=1;entryX=0.5;entryY=0;entryDx=0;entryDy=0;" edge="1" parent="1" target="TdM7WFlx7A7SoxOeXF58-15">
          <mxGeometry relative="1" as="geometry">
            <mxPoint x="800" y="400" as="targetPoint" />
            <mxPoint x="740" y="390" as="sourcePoint" />
            <Array as="points">
              <mxPoint x="740" y="430" />
            </Array>
          </mxGeometry>
        </mxCell>
        <mxCell id="TdM7WFlx7A7SoxOeXF58-14" value="Interest" style="ellipse;whiteSpace=wrap;html=1;align=center;" vertex="1" parent="1">
          <mxGeometry x="520" y="540" width="100" height="40" as="geometry" />
        </mxCell>
        <mxCell id="TdM7WFlx7A7SoxOeXF58-15" value="OverDrafts" style="ellipse;whiteSpace=wrap;html=1;align=center;" vertex="1" parent="1">
          <mxGeometry x="690" y="430" width="100" height="40" as="geometry" />
        </mxCell>
        <mxCell id="TdM7WFlx7A7SoxOeXF58-16" value="N" style="text;html=1;align=center;verticalAlign=middle;resizable=0;points=[];autosize=1;" vertex="1" parent="1">
          <mxGeometry x="580" y="330" width="20" height="20" as="geometry" />
        </mxCell>
        <mxCell id="TdM7WFlx7A7SoxOeXF58-17" value="1" style="text;html=1;align=center;verticalAlign=middle;resizable=0;points=[];autosize=1;" vertex="1" parent="1">
          <mxGeometry x="580" y="430" width="20" height="20" as="geometry" />
        </mxCell>
        <mxCell id="TdM7WFlx7A7SoxOeXF58-18" value="N" style="text;html=1;align=center;verticalAlign=middle;resizable=0;points=[];autosize=1;" vertex="1" parent="1">
          <mxGeometry x="640" y="250" width="20" height="20" as="geometry" />
        </mxCell>
        <mxCell id="TdM7WFlx7A7SoxOeXF58-19" value="1" style="text;html=1;align=center;verticalAlign=middle;resizable=0;points=[];autosize=1;" vertex="1" parent="1">
          <mxGeometry x="760" y="310" width="20" height="20" as="geometry" />
        </mxCell>
        <mxCell id="TdM7WFlx7A7SoxOeXF58-20" value="has-Savings" style="shape=rhombus;double=1;perimeter=rhombusPerimeter;whiteSpace=wrap;html=1;align=center;" vertex="1" parent="1">
          <mxGeometry x="510" y="360" width="120" height="60" as="geometry" />
        </mxCell>
        <mxCell id="TdM7WFlx7A7SoxOeXF58-21" value="has-Checkings" style="shape=rhombus;double=1;perimeter=rhombusPerimeter;whiteSpace=wrap;html=1;align=center;" vertex="1" parent="1">
          <mxGeometry x="680" y="250" width="120" height="60" as="geometry" />
        </mxCell>
        <mxCell id="TdM7WFlx7A7SoxOeXF58-23" value="" style="shape=link;html=1;rounded=0;" edge="1" parent="1">
          <mxGeometry relative="1" as="geometry">
            <mxPoint x="569.82" y="420" as="sourcePoint" />
            <mxPoint x="569" y="460" as="targetPoint" />
          </mxGeometry>
        </mxCell>
        <mxCell id="TdM7WFlx7A7SoxOeXF58-24" value="1" style="resizable=0;html=1;align=right;verticalAlign=bottom;" connectable="0" vertex="1" parent="TdM7WFlx7A7SoxOeXF58-23">
          <mxGeometry x="1" relative="1" as="geometry" />
        </mxCell>
        <mxCell id="TdM7WFlx7A7SoxOeXF58-27" value="" style="shape=link;html=1;rounded=0;" edge="1" parent="1">
          <mxGeometry relative="1" as="geometry">
            <mxPoint x="739.41" y="310" as="sourcePoint" />
            <mxPoint x="739" y="350" as="targetPoint" />
          </mxGeometry>
        </mxCell>
        <mxCell id="TdM7WFlx7A7SoxOeXF58-28" value="1" style="resizable=0;html=1;align=right;verticalAlign=bottom;" connectable="0" vertex="1" parent="TdM7WFlx7A7SoxOeXF58-27">
          <mxGeometry x="1" relative="1" as="geometry" />
        </mxCell>
        <mxCell id="TdM7WFlx7A7SoxOeXF58-29" value="Savings" style="shape=ext;margin=3;double=1;whiteSpace=wrap;html=1;align=center;" vertex="1" parent="1">
          <mxGeometry x="520" y="460" width="100" height="40" as="geometry" />
        </mxCell>
        <mxCell id="TdM7WFlx7A7SoxOeXF58-30" value="Checkings" style="shape=ext;margin=3;double=1;whiteSpace=wrap;html=1;align=center;" vertex="1" parent="1">
          <mxGeometry x="690" y="350" width="100" height="40" as="geometry" />
        </mxCell>
        <mxCell id="TdM7WFlx7A7SoxOeXF58-31" value="1" style="text;html=1;align=center;verticalAlign=middle;resizable=0;points=[];autosize=1;" vertex="1" parent="1">
          <mxGeometry x="-10" y="-100" width="20" height="20" as="geometry" />
        </mxCell>
        <mxCell id="TdM7WFlx7A7SoxOeXF58-33" value="" style="shape=link;html=1;rounded=0;width=7.647058823529413;" edge="1" parent="1">
          <mxGeometry relative="1" as="geometry">
            <mxPoint x="260" y="-80" as="sourcePoint" />
            <mxPoint x="510" y="-80" as="targetPoint" />
          </mxGeometry>
        </mxCell>
        <mxCell id="TdM7WFlx7A7SoxOeXF58-35" value="" style="shape=link;html=1;rounded=0;entryX=0.75;entryY=0;entryDx=0;entryDy=0;width=7.647058823529413;" edge="1" parent="1" target="Xwp6TRn4pz_zxC7EvDok-20">
          <mxGeometry relative="1" as="geometry">
            <mxPoint x="503" y="-90" as="sourcePoint" />
            <mxPoint x="660" y="-60" as="targetPoint" />
            <Array as="points">
              <mxPoint x="503" y="20" />
            </Array>
          </mxGeometry>
        </mxCell>
        <mxCell id="TdM7WFlx7A7SoxOeXF58-37" value="1" style="text;html=1;align=center;verticalAlign=middle;resizable=0;points=[];autosize=1;" vertex="1" parent="1">
          <mxGeometry x="450" y="-110" width="20" height="20" as="geometry" />
        </mxCell>
      </root>
    </mxGraphModel>
  </diagram>
</mxfile>
